<svg xmlns="http://www.w3.org/2000/svg" viewBox="0 0 64 64" role="img" aria-label="SpriteCraft favicon">
  <defs>
    <linearGradient id="bg" x1="0" x2="1" y1="0" y2="1">
      <stop offset="0%" stop-color="#1b2334" />
      <stop offset="100%" stop-color="#16161d" />
    </linearGradient>
    <linearGradient id="spark" x1="0" x2="1" y1="0" y2="1">
      <stop offset="0%" stop-color="#ff8f3f" />
      <stop offset="100%" stop-color="#f2c56b" />
    </linearGradient>
  </defs>
  <rect width="64" height="64" rx="14" fill="url(#bg)" />
  <rect x="14" y="14" width="36" height="36" rx="8" fill="#1f1f28" stroke="#8ea4d2" stroke-width="2" />
  <path d="M32 10 L37.1 19.3 L47.4 22.4 L39.8 29.7 L41.4 40.4 L32 35.3 L22.6 40.4 L24.2 29.7 L16.6 22.4 L26.9 19.3 Z" fill="url(#spark)" stroke="#8ea4d2" stroke-width="1.6" />
  <rect x="9" y="22" width="4" height="4" fill="#8ea4d2" />
  <rect x="9" y="30" width="4" height="4" fill="#8ea4d2" />
  <rect x="9" y="38" width="4" height="4" fill="#8ea4d2" />
  <rect x="51" y="22" width="4" height="4" fill="#8ea4d2" />
  <rect x="51" y="30" width="4" height="4" fill="#8ea4d2" />
  <rect x="51" y="38" width="4" height="4" fill="#8ea4d2" />
</svg>
